<svg width="152" height="22" viewBox="0 0 152 22" fill="none" xmlns="http://www.w3.org/2000/svg">
<g clip-path="url(#clip0_1445_54298)">
<path d="M8.14876 0L3.86837 2.89487H21.9742L0 17.9528H15.7177L37.8139 2.89487H50.4262L54.6684 0H8.14876Z" fill="white"/>
<path d="M84.1886 10.4277C91.5592 9.59838 97.6631 8.00889 98.5787 5.52867C100.448 0.314827 88.9879 0 86.5844 0H58.0409L31.8168 17.9528H47.6336L69.6231 2.89487H82.4643C82.4643 2.89487 85.1042 2.89487 85.1042 4.48437C85.1042 6.61137 83.357 8.73069 66.2049 8.79212H64.4271L61.4286 10.8347C61.4286 10.8347 92.7113 20.3563 99.2806 21.677C101.55 22.1077 103.879 22.1077 106.148 21.677L84.1886 10.4277Z" fill="white"/>
<path d="M139.902 0H111.328L92.9707 12.5163L101.966 17.2233L122.842 2.89487H135.683C139.498 2.89487 139.216 6.21208 135.393 7.38692C132.822 8.15479 127.656 8.76141 118.981 8.79212H117.684L114.716 10.8116C126.23 11.8482 150.081 10.7118 151.942 5.52099C153.804 0.330184 142.26 0 139.902 0Z" fill="white"/>
</g>
<defs>
<clipPath id="clip0_1445_54298">
<rect width="152" height="22" fill="white"/>
</clipPath>
</defs>
</svg>
